<svg width="580" height="400" fill="#50bbe6" xmlns="http://www.w3.org/2000/svg">
 <!-- Created with Method Draw - http://github.com/duopixel/Method-Draw/ -->

 <g>
  <title>background</title>
  <g display="none" overflow="visible" y="0" x="0" height="100%" width="100%" id="canvasGrid">
   <rect fill="url(#gridpattern)" stroke-width="0" y="0" x="0" height="100%" width="100%"/>
  </g>
 </g>
 <g>
  <title>Layer 1</title>
  <g id="svg_8">
   <path id="svg_4" d="m275.63205,191.159363l0,-10.756485l7.964813,0c0.525391,0 1.001953,-0.308594 1.216797,-0.78775c0.214844,-0.479828 0.128235,-1.040375 -0.221375,-1.432938l-16.999298,-19.076782c-0.5065,-0.567719 -1.484375,-0.567719 -1.990875,0l-16.999298,19.076782c-0.349609,0.392563 -0.436203,0.95311 -0.221359,1.432938c0.214828,0.479156 0.691391,0.78775 1.216797,0.78775l7.900375,0l0,10.756485c0,0.736328 0.596985,1.333328 1.333313,1.333328l15.466766,0c0.736328,0 1.333344,-0.597 1.333344,-1.333328zm-2.666656,-12.089813l0,10.756485l-12.80011,0l0,-10.756485c0,-0.736328 -0.597015,-1.333328 -1.333344,-1.333328l-6.259735,0l14.02533,-15.739548l14.02536,15.739548l-6.324188,0c-0.736328,0 -1.333313,0.597 -1.333313,1.333328z"/>
   <path id="svg_5" d="m304.898224,177.210815c-2.834198,0 -5.647522,0.32489 -8.389862,0.929855c0.510742,-8.088608 -2.328857,-16.334259 -8.560608,-22.615341c-11.562469,-11.651016 -30.546783,-11.820923 -42.320206,-0.375641c-5.707657,5.549469 -8.889954,12.968063 -8.960907,20.889282c-0.070969,7.918579 2.976547,15.390579 8.581345,21.039642c5.912674,5.957504 13.860809,9.058823 21.99295,8.869598c-1.465881,6.472488 -0.611237,12.97493 -0.576324,13.224747c0.427734,4.158829 2.032532,9.557922 4.095032,13.785126c1.804047,6.033844 -9.494751,10.567032 -9.609985,10.611969c-0.410156,0.162094 -0.714203,0.51561 -0.811859,0.945938c-0.097015,0.429688 0.023438,0.880203 0.323578,1.202484c8.141235,8.757126 19.253845,2.763672 22.329346,0.824219c6.448578,4.440735 14.002563,6.783173 21.907501,6.783173c21.192017,0 38.433502,-17.072205 38.433502,-38.05719s-17.241486,-38.057861 -38.433502,-38.057861zm-57.757019,17.988892c-5.099579,-5.138641 -7.873016,-11.935516 -7.808563,-19.137299c0.065109,-7.203781 2.960938,-13.951797 8.154282,-19.001266c10.729141,-10.429016 28.029861,-10.276016 38.567612,0.342453c10.402313,10.484344 10.496735,26.990158 0.214203,37.578018c-0.182312,0.1875 -0.3685,0.374344 -0.557953,0.557953c-0.035156,0.0345 -0.069,0.070297 -0.10025,0.108719c-1.585297,1.916656 -1.604187,3.636047 -1.341156,4.740875c0.389984,1.634766 1.584625,2.906891 2.734375,3.79361c-6.744141,2.072906 -10.479156,-1.677078 -10.647125,-1.850266c-0.255859,-0.271469 -0.608704,-0.41861 -0.970032,-0.41861c-0.135437,0 -0.272156,0.020828 -0.404968,0.063156c-9.89386,3.154266 -20.561127,0.557281 -27.840424,-6.777344zm57.757019,55.459503c-7.651642,0 -14.949188,-2.35611 -21.102783,-6.813126c-0.469421,-0.339859 -1.108093,-0.337234 -1.576172,0.009109c-0.110046,0.080719 -10.429016,7.585938 -18.212189,1.346344c3.709595,-1.838531 11.37561,-6.535126 9.265594,-13.142548c-0.020203,-0.0625 -0.044281,-0.123688 -0.073578,-0.182281c-1.95636,-3.98111 -3.480469,-9.074844 -3.88736,-13.019501c-0.008942,-0.069168 -0.89444,-6.884491 0.728363,-13.114777c1.67868,-0.195801 3.356262,-0.516541 5.016418,-1.000427c1.172516,0.957031 3.910797,2.744141 8.004517,2.744141c2.141937,0 4.655579,-0.490234 7.509094,-1.844391c0.471375,-0.223297 0.767578,-0.701828 0.760437,-1.223297s-0.319,-0.991547 -0.796204,-1.201843c-0.886719,-0.391922 -3.276062,-1.77536 -3.671875,-3.4505c-0.17514,-0.742188 0.072906,-1.516266 0.759094,-2.364578c0.190094,-0.185547 0.377625,-0.373688 0.560547,-0.5625c4.431152,-4.562805 7.08316,-10.127975 8.013428,-15.89946c2.83078,-0.700027 5.755676,-1.062088 8.702667,-1.062088c19.721954,0 35.766846,15.876266 35.766846,35.39119c0,19.514282 -16.044891,35.390533 -35.766846,35.390533z"/>
   <path id="svg_6" d="m318.152771,208.936005l-23.999939,0c-0.736328,0 -1.333344,0.597015 -1.333344,1.333344s0.597015,1.333313 1.333344,1.333313l23.999939,0c0.736328,0 1.333313,-0.596985 1.333313,-1.333313s-0.596985,-1.333344 -1.333313,-1.333344z"/>
   <path id="svg_7" d="m318.152771,221.688583l-23.999939,0c-0.736328,0 -1.333344,0.597 -1.333344,1.333328s0.597015,1.333328 1.333344,1.333328l23.999939,0c0.736328,0 1.333313,-0.597 1.333313,-1.333328s-0.596985,-1.333328 -1.333313,-1.333328z"/>
  </g>
  <rect id="svg_13" height="15.86114" width="24.871157" y="178.31768" x="254.177294" fill-opacity="null" stroke-opacity="null" stroke-width="1.5" stroke="#50bbe6" fill="#fff"/>
  <rect id="svg_14" height="15.567043" width="7.800224" y="178.31768" x="262.284027" fill-opacity="null" stroke-opacity="null" stroke-width="1.5" stroke="#50bbe6" fill="#fff"/>
  <rect id="svg_16" height="0.281683" width="32.111852" y="179.431999" x="250.416106" fill-opacity="null" stroke-opacity="null" stroke-width="1.5" stroke="#50bbe6" fill="#fff"/>
  <line stroke-linecap="null" stroke-linejoin="null" id="svg_18" y2="194.103827" x2="284.391516" y1="194.103827" x1="249.394008" fill-opacity="null" stroke-opacity="null" stroke-width="2" stroke="#50bbe6" fill="none"/>
 </g>
</svg>
