<?xml version="1.0" encoding="UTF-8" standalone="no"?>
<!DOCTYPE svg PUBLIC "-//W3C//DTD SVG 1.1//EN" "http://www.w3.org/Graphics/SVG/1.1/DTD/svg11.dtd">
<svg version="1.1" xmlns="http://www.w3.org/2000/svg" xmlns:xlink="http://www.w3.org/1999/xlink" preserveAspectRatio="xMidYMid meet" viewBox="-0.03893759229544003 -0.03122442565131678 106.16374837498441 106.15416992492109" width="102.16" height="102.15"><defs><path d="M32.08 1.06L33.18 1.18L34.27 1.33L35.36 1.53L36.44 1.77L37.5 2.05L38.57 2.37L39.62 2.73L40.65 3.13L41.68 3.58L42.69 4.06L43.68 4.59L44.66 5.16L45.62 5.77L46.55 6.42L47.47 7.12L48.36 7.85L49.24 8.62L50.08 9.45L50.52 9.9L50.95 10.36L51.36 10.83L51.77 11.3L52.17 11.78L52.91 12.76L53.27 13.26L53.61 13.77L53.95 14.27L54.27 14.79L54.57 15.31L54.87 15.83L55.16 16.36L55.42 16.9L55.68 17.43L55.93 17.98L56.16 18.52L56.39 19.07L56.6 19.63L56.99 20.74L57.16 21.3L57.32 21.86L57.47 22.43L57.61 23L57.73 23.57L57.85 24.15L57.95 24.72L58.04 25.3L58.12 25.87L58.18 26.46L58.24 27.03L58.28 27.62L58.31 28.19L58.33 28.78L58.34 29.36L58.33 29.94L58.31 30.52L58.28 31.1L58.47 31.06L58.67 31.02L58.87 30.98L59.06 30.94L59.47 30.86L59.66 30.82L59.86 30.79L60.06 30.76L60.26 30.72L60.46 30.69L60.65 30.65L61.66 30.51L61.86 30.49L62.06 30.46L62.46 30.42L62.67 30.39L63.07 30.36L63.27 30.35L63.67 30.31L63.87 30.3L64.08 30.28L65.09 30.23L65.3 30.23L65.5 30.22L65.7 30.22L65.9 30.21L66.31 30.21L67.83 30.24L69.33 30.34L70.81 30.48L72.27 30.69L73.72 30.96L75.15 31.27L76.55 31.65L77.93 32.07L79.29 32.55L80.63 33.09L81.94 33.66L83.22 34.29L84.47 34.96L85.69 35.68L86.88 36.45L88.04 37.25L89.17 38.1L90.26 39L91.31 39.93L92.33 40.9L93.32 41.91L94.26 42.95L95.16 44.03L96.02 45.15L96.83 46.3L97.61 47.48L98.33 48.69L99.02 49.92L99.65 51.2L100.23 52.49L100.76 53.81L101.25 55.15L101.68 56.52L102.05 57.91L102.38 59.33L102.65 60.76L102.86 62.21L103 63.68L103.1 65.16L103.12 66.67L103.1 68.17L103 69.66L102.86 71.12L102.65 72.57L102.38 74L102.05 75.41L101.68 76.81L101.25 78.17L100.76 79.52L100.23 80.84L99.65 82.14L99.02 83.4L98.33 84.65L97.61 85.85L96.83 87.03L96.02 88.18L95.16 89.29L94.26 90.37L93.32 91.42L92.33 92.43L91.31 93.4L90.26 94.33L89.17 95.23L88.04 96.07L86.88 96.89L85.69 97.65L84.47 98.37L83.22 99.04L81.94 99.67L80.63 100.25L79.29 100.78L77.93 101.26L76.55 101.69L75.15 102.06L73.72 102.38L72.27 102.64L70.81 102.85L69.33 103L67.83 103.08L66.31 103.12L65.18 103.1L64.62 103.08L64.05 103.06L63.49 103.02L62.93 102.97L62.37 102.91L61.81 102.85L61.26 102.78L60.71 102.7L60.16 102.62L59.61 102.52L58.52 102.31L57.97 102.18L57.44 102.06L56.9 101.93L56.36 101.78L55.83 101.63L55.3 101.47L54.25 101.12L53.72 100.94L53.2 100.75L52.68 100.55L52.18 100.34L51.66 100.12L51.15 99.9L50.65 99.67L50.15 99.44L49.65 99.19L49.16 98.93L48.66 98.67L48.17 98.4L47.69 98.12L46.74 97.55L45.8 96.94L45.33 96.62L45.1 96.77L44.83 96.93L44.54 97.1L44.23 97.28L43.88 97.46L43.52 97.66L43.13 97.85L42.72 98.06L42.29 98.26L41.84 98.46L41.37 98.66L40.88 98.86L40.38 99.04L39.86 99.22L39.32 99.4L38.78 99.56L38.21 99.71L37.64 99.85L37.05 99.97L36.46 100.07L35.85 100.15L35.23 100.21L34.62 100.25L33.99 100.27L33.36 100.26L32.72 100.22L32.08 100.15L31.44 100.05L30.8 99.92L30.16 99.75L29.51 99.55L28.87 99.31L28.24 99.03L27.61 98.72L26.98 98.35L26.35 97.94L25.74 97.49L25.13 96.98L24.53 96.44L23.94 95.83L23.92 95.81L23.9 95.79L23.88 95.76L23.86 95.74L23.84 95.71L23.82 95.69L23.79 95.63L23.78 95.6L23.76 95.58L23.75 95.56L23.73 95.53L23.72 95.5L23.7 95.47L23.63 95.27L23.63 95.24L23.62 95.2L23.61 95.17L23.61 95.14L23.6 95.12L23.6 94.99L23.59 94.96L23.6 94.93L23.6 94.84L23.61 94.81L23.61 94.74L23.63 94.68L23.64 94.65L23.64 94.62L23.67 94.53L23.69 94.5L23.72 94.42L23.74 94.39L23.75 94.36L23.77 94.33L23.78 94.3L23.8 94.28L23.83 94.22L23.85 94.21L23.87 94.18L23.89 94.16L23.91 94.13L23.93 94.11L23.95 94.08L23.99 94.04L24.02 94.02L24.08 93.96L24.11 93.94L24.13 93.93L24.19 93.89L24.21 93.87L24.24 93.86L24.29 93.82L24.35 93.8L24.38 93.78L24.44 93.76L24.5 93.74L24.6 93.7L24.74 93.63L24.91 93.56L25.1 93.48L25.33 93.37L25.58 93.26L26.13 92.98L26.45 92.83L26.77 92.65L27.11 92.47L27.46 92.27L27.83 92.06L28.19 91.84L28.57 91.61L28.95 91.37L29.32 91.11L29.7 90.84L30.07 90.57L30.44 90.28L30.8 89.98L31.15 89.67L31.49 89.36L31.81 89.02L32.12 88.69L32.41 88.34L32.68 87.99L32.92 87.63L33.14 87.26L33.33 86.88L33.49 86.49L33.62 86.1L33.72 85.7L33.78 85.3L33.8 84.89L33.79 84.46L33.72 84.04L33.61 83.61L33.47 83.31L33.32 83L33.17 82.68L33.04 82.37L32.75 81.72L32.48 81.06L32.36 80.73L32.23 80.4L32.1 80.06L31.85 79.39L31.73 79.04L31.61 78.71L31.38 78.02L30.96 76.64L30.77 75.95L30.68 75.6L30.59 75.27L30.51 74.92L30.42 74.59L30.19 73.58L30.13 73.25L30.07 72.92L30 72.6L29.95 72.27L29.8 71.32L29.69 70.4L29.69 70.37L29.68 70.33L29.67 70.25L29.66 70.16L29.65 70.05L29.63 69.91L29.62 69.76L29.6 69.59L29.58 69.41L29.56 69.2L29.55 68.98L29.53 68.74L29.51 68.48L29.5 68.21L29.49 67.93L29.47 67.63L29.46 67.32L29.45 66.99L29.44 66.66L29.43 66.3L29.43 64.81L29.45 64.41L29.46 64L29.5 63.16L29.52 62.73L29.56 62.3L29.64 61.42L29.7 60.97L29.81 60.05L29.96 59.13L30.05 58.67L30.15 58.2L30.24 57.74L29.66 57.75L29.07 57.74L28.5 57.73L27.91 57.7L27.33 57.66L26.18 57.55L25.61 57.47L25.03 57.39L24.47 57.29L23.89 57.18L23.33 57.06L22.76 56.93L22.21 56.79L21.65 56.64L20.54 56.29L19.99 56.1L19.46 55.91L18.91 55.7L18.37 55.48L17.85 55.25L16.79 54.75L15.76 54.22L15.25 53.93L14.75 53.63L14.26 53.32L13.28 52.67L12.8 52.34L12.32 51.98L11.85 51.63L11.39 51.26L10.93 50.87L10.48 50.48L10.04 50.08L9.61 49.67L9.18 49.24L8.78 48.83L8.39 48.42L8.01 48L7.64 47.57L7.28 47.14L6.93 46.7L6.58 46.25L6.26 45.8L5.93 45.34L5.62 44.88L5.02 43.94L4.73 43.46L4.47 42.98L4.2 42.49L3.7 41.5L3.47 41L3.24 40.49L3.03 39.98L2.63 38.95L2.45 38.43L2.27 37.9L2.11 37.38L1.96 36.84L1.69 35.77L1.56 35.22L1.46 34.68L1.27 33.58L1.19 33.03L1.12 32.47L1.08 31.91L1.03 31.35L0.99 30.79L0.97 30.22L0.96 29.66L0.96 29.09L0.97 28.53L0.99 27.95L1.02 27.4L1.07 26.83L1.12 26.27L1.19 25.71L1.27 25.15L1.35 24.61L1.45 24.05L1.55 23.51L1.68 22.97L1.8 22.42L1.95 21.89L2.1 21.35L2.26 20.82L2.44 20.3L2.62 19.78L2.81 19.26L3.01 18.75L3.22 18.23L3.45 17.73L3.68 17.22L3.92 16.73L4.44 15.75L4.72 15.26L4.99 14.79L5.29 14.31L5.59 13.84L5.9 13.38L6.23 12.92L6.55 12.47L7.24 11.59L7.97 10.73L8.36 10.31L8.74 9.9L9.13 9.48L9.54 9.08L10.4 8.28L11.29 7.52L12.19 6.8L13.12 6.12L14.06 5.49L15.03 4.9L16.02 4.35L17.02 3.84L18.04 3.37L19.07 2.94L20.12 2.56L21.18 2.21L22.24 1.92L23.32 1.65L24.4 1.44L25.49 1.26L26.58 1.12L27.68 1.03L28.79 0.98L29.89 0.97L30.99 1L32.08 1.06ZM65.46 32.78L65.25 32.78L64.2 32.83L63.99 32.85L63.78 32.86L63.57 32.87L63.36 32.89L62.73 32.95L62.52 32.98L62.31 33L62.1 33.03L61.9 33.05L61.27 33.13L61.07 33.17L60.64 33.23L60.44 33.27L60.23 33.31L60.03 33.34L59.61 33.42L59.41 33.46L59.21 33.51L59 33.55L58.8 33.59L58.59 33.64L57.98 33.78L57.75 35.02L57.66 35.43L57.57 35.84L57.36 36.67L57.13 37.47L56.99 37.88L56.87 38.29L56.73 38.69L56.58 39.08L56.43 39.48L56.28 39.88L56.11 40.28L55.94 40.67L55.77 41.05L55.59 41.45L55.2 42.21L55 42.6L54.79 42.98L54.58 43.35L54.36 43.73L53.9 44.47L53.42 45.2L52.9 45.93L52.65 46.28L52.38 46.64L52.1 46.98L51.53 47.67L51.23 48.02L50.92 48.35L50.62 48.68L50.3 49.01L50.26 49.05L50.25 49.07L50.23 49.08L50.21 49.11L50.18 49.14L50.17 49.15L50.13 49.19L50.09 49.23L50.08 49.24L50.03 49.28L50.01 49.31L49.96 49.35L49.95 49.37L49.95 49.38L49.93 49.39L49.92 49.41L49.82 49.5L49.79 49.52L49.76 49.55L49.72 49.62L49.62 49.73L49.58 49.79L49.53 49.86L49.38 50.09L49.35 50.14L49.31 50.21L49.2 50.44L49.18 50.5L49.15 50.56L49.13 50.61L49.11 50.66L49.05 50.83L49.04 50.95L49.02 51.01L49.01 51.05L49.01 51.11L48.99 51.23L48.99 51.5L49 51.55L49 51.6L49.01 51.66L49.02 51.71L49.04 51.82L49.07 51.94L49.11 52.06L49.15 52.18L49.32 52.52L49.39 52.63L49.54 52.85L49.63 52.96L49.8 53.17L49.9 53.27L49.99 53.37L50.09 53.47L50.41 53.76L50.62 53.93L50.73 54.01L50.84 54.1L50.95 54.18L51.06 54.26L51.17 54.33L51.28 54.41L51.38 54.47L51.5 54.55L51.59 54.61L51.7 54.68L51.8 54.73L51.9 54.79L52 54.84L52.09 54.9L52.18 54.93L52.26 54.98L52.55 55.13L52.59 55.13L52.62 55.15L52.66 55.17L52.68 55.19L52.72 55.21L52.81 55.27L52.84 55.3L52.9 55.34L52.92 55.36L52.94 55.39L52.97 55.41L52.99 55.44L53.02 55.47L53.04 55.5L53.07 55.53L53.14 55.64L53.16 55.68L53.17 55.71L53.19 55.74L53.21 55.78L53.22 55.81L53.24 55.84L53.25 55.87L53.27 55.95L53.28 55.98L53.3 56.05L53.3 56.09L53.31 56.12L53.31 56.16L53.32 56.2L53.32 56.38L53.31 56.42L53.31 56.46L53.3 56.5L53.3 56.53L53.29 56.56L53.27 56.64L53.26 56.67L53.24 56.74L53.22 56.77L53.21 56.81L53.19 56.84L53.18 56.87L53.16 56.91L53.09 57.02L53.07 57.06L53.04 57.08L53 57.14L52.9 57.24L52.87 57.26L52.84 57.29L52.78 57.33L52.75 57.36L52.72 57.38L52.68 57.4L52.66 57.41L52.63 57.42L52.59 57.44L52.39 57.54L52.18 57.63L51.77 57.81L51.58 57.89L51.38 57.97L51.18 58.06L50.99 58.12L50.8 58.2L50.6 58.27L50.21 58.4L50.03 58.46L49.65 58.57L49.47 58.63L48.92 58.77L48.56 58.85L48.38 58.89L48.2 58.93L48.03 58.97L47.51 59.05L47.34 59.07L47.17 59.1L47 59.12L46.83 59.14L46.67 59.15L46.51 59.17L46.02 59.2L45.86 59.21L45.71 59.21L45.55 59.22L45.4 59.22L44.53 59.19L44.26 59.17L43.99 59.14L43.72 59.1L43.46 59.07L43.2 59.02L42.7 58.93L42.46 58.88L42.23 58.81L42 58.76L41.77 58.69L41.32 58.55L41.11 58.48L40.71 58.32L40.51 58.24L40.32 58.16L39.95 57.99L39.78 57.9L39.62 57.82L39.45 57.73L38.99 57.47L38.85 57.38L38.71 57.29L38.59 57.2L38.45 57.13L38.22 56.95L37.91 56.72L37.82 56.66L37.73 56.58L37.61 56.62L37.49 56.65L37.37 56.69L37.25 56.72L37.13 56.75L37.01 56.78L36.89 56.81L36.77 56.84L36.65 56.87L36.54 56.9L36.41 56.93L36.3 56.95L36.17 56.98L36.06 57.01L35.93 57.04L35.82 57.07L35.69 57.09L35.58 57.12L35.45 57.15L35.34 57.17L35.21 57.18L35.09 57.21L34.97 57.23L34.85 57.26L34.73 57.28L34.61 57.3L34.5 57.32L34.25 57.36L34.13 57.38L34.01 57.4L33.89 57.41L33.77 57.43L33.65 57.45L33.53 57.46L33.4 57.48L33.29 57.5L33.16 57.51L33.05 57.53L32.92 57.54L32.81 57.99L32.62 58.89L32.45 59.79L32.31 60.69L32.25 61.13L32.16 62.01L32.12 62.44L32.09 62.87L32.06 63.3L32.03 63.71L32.01 64.12L32 64.52L32 64.91L31.99 65.3L31.99 66.04L32 66.39L32.01 67.06L32.02 67.38L32.03 67.67L32.05 67.96L32.06 68.23L32.08 68.49L32.1 68.73L32.11 68.95L32.13 69.16L32.15 69.34L32.16 69.51L32.18 69.67L32.19 69.79L32.21 69.9L32.22 69.98L32.22 70.05L32.23 70.09L32.23 70.11L32.25 70.39L32.33 70.97L32.38 71.27L32.43 71.57L32.47 71.87L32.52 72.17L32.58 72.48L32.85 73.75L33 74.38L33.08 74.7L33.25 75.36L33.35 75.67L33.43 76L33.53 76.32L33.63 76.65L33.73 76.97L33.94 77.63L34.05 77.95L34.16 78.27L34.27 78.59L34.39 78.91L34.51 79.23L34.63 79.55L34.75 79.87L34.88 80.17L35.01 80.49L35.14 80.8L35.27 81.1L35.81 82.29L35.95 82.58L35.96 82.59L35.96 82.6L35.97 82.62L35.97 82.63L35.98 82.63L35.98 82.64L36 82.68L36.01 82.71L36.01 82.72L36.02 82.73L36.02 82.75L36.15 83.22L36.26 83.69L36.32 84.14L36.36 84.59L36.36 85.04L36.34 85.47L36.3 85.9L36.22 86.32L36.11 86.73L35.99 87.14L35.84 87.54L35.66 87.92L35.47 88.31L35.26 88.68L35.04 89.05L34.79 89.41L34.53 89.76L34.26 90.1L33.97 90.43L33.67 90.76L33.36 91.07L33.05 91.38L32.72 91.68L32.05 92.25L31.36 92.79L31.01 93.04L30.66 93.29L29.97 93.75L29.28 94.17L28.63 94.55L28.31 94.73L28 94.9L27.7 95.05L27.42 95.2L27.15 95.34L27.71 95.76L28.28 96.14L28.86 96.47L29.45 96.75L30.03 97L30.63 97.2L31.22 97.38L31.81 97.51L32.41 97.61L33 97.66L33.59 97.7L34.18 97.71L34.76 97.69L35.34 97.64L35.91 97.58L36.48 97.49L37.03 97.38L37.57 97.25L38.11 97.12L38.62 96.96L39.13 96.8L39.62 96.63L40.1 96.45L40.55 96.26L40.99 96.06L41.41 95.87L41.8 95.68L42.19 95.49L42.54 95.31L42.87 95.12L43.17 94.95L43.45 94.79L43.7 94.64L43.92 94.49L44.11 94.37L44.27 94.26L44.41 94.18L44.5 94.11L44.56 94.06L44.59 94.05L44.62 94.02L44.66 94L44.7 93.98L44.73 93.96L44.84 93.9L44.88 93.89L44.92 93.87L45.18 93.8L45.26 93.8L45.31 93.79L45.39 93.79L45.42 93.8L45.5 93.8L45.58 93.82L45.63 93.82L45.7 93.84L45.74 93.86L45.82 93.88L45.86 93.9L45.88 93.92L45.92 93.93L45.96 93.95L46 93.98L46.03 93.99L46.07 94.01L46.1 94.04L46.54 94.36L47 94.67L47.45 94.96L47.91 95.26L48.36 95.55L48.82 95.82L49.76 96.36L50.23 96.61L50.71 96.86L51.2 97.1L51.68 97.33L52.17 97.56L52.66 97.77L53.15 97.98L53.65 98.18L54.15 98.37L54.66 98.55L55.16 98.74L55.67 98.9L56.18 99.06L56.7 99.21L57.21 99.36L57.73 99.49L58.25 99.63L59.3 99.86L59.83 99.96L60.36 100.06L60.89 100.14L61.97 100.3L63.04 100.41L63.58 100.46L64.12 100.5L64.67 100.53L65.21 100.55L65.77 100.56L66.31 100.57L67.72 100.54L69.12 100.45L70.5 100.32L71.86 100.12L73.21 99.88L74.53 99.58L75.85 99.23L77.13 98.83L78.39 98.39L79.64 97.89L80.85 97.36L82.04 96.77L83.21 96.15L84.34 95.48L85.45 94.77L86.53 94.01L87.58 93.23L88.59 92.4L89.58 91.52L90.53 90.62L91.44 89.68L92.31 88.72L93.15 87.71L93.96 86.68L94.71 85.6L95.43 84.51L96.11 83.38L96.75 82.23L97.33 81.05L97.88 79.85L98.37 78.62L98.82 77.37L99.23 76.09L99.57 74.8L99.88 73.49L100.13 72.16L100.32 70.81L100.46 69.45L100.55 68.07L100.58 66.67L100.55 65.27L100.46 63.89L100.32 62.52L100.13 61.18L99.88 59.85L99.57 58.53L99.23 57.23L98.82 55.96L98.37 54.71L97.88 53.49L97.33 52.28L96.75 51.1L96.11 49.94L95.43 48.82L94.71 47.72L93.96 46.66L93.15 45.62L92.31 44.62L91.44 43.64L90.53 42.7L89.58 41.8L88.59 40.94L87.58 40.11L86.53 39.31L85.45 38.56L84.34 37.86L83.21 37.18L82.04 36.55L80.85 35.97L79.64 35.43L78.39 34.94L77.13 34.49L75.85 34.1L74.53 33.76L73.21 33.46L71.86 33.21L70.5 33.02L69.12 32.88L67.72 32.8L66.31 32.77L65.68 32.77L65.46 32.78ZM27.64 3.59L26.53 3.7L25.41 3.85L24.31 4.05L23.22 4.3L22.14 4.59L21.07 4.93L20.01 5.32L18.97 5.75L17.93 6.24L16.93 6.76L15.93 7.34L14.96 7.96L14.02 8.62L13.09 9.34L12.2 10.11L11.32 10.91L10.91 11.32L10.51 11.73L10.13 12.16L9.74 12.59L9.38 13.02L9.02 13.46L8.67 13.91L8.34 14.37L8.01 14.83L7.69 15.3L7.4 15.77L7.1 16.25L6.81 16.73L6.55 17.22L6.29 17.72L6.04 18.22L5.8 18.73L5.58 19.23L5.36 19.75L5.16 20.28L4.96 20.8L4.78 21.33L4.46 22.41L4.31 22.94L4.18 23.49L4.05 24.03L3.95 24.59L3.85 25.14L3.77 25.7L3.69 26.27L3.63 26.83L3.59 27.4L3.55 27.97L3.52 28.54L3.51 29.11L3.51 29.68L3.53 30.26L3.56 30.82L3.6 31.4L3.64 31.96L3.7 32.52L3.78 33.09L3.86 33.64L3.97 34.2L4.07 34.74L4.2 35.29L4.49 36.38L4.64 36.92L4.81 37.44L4.99 37.97L5.19 38.5L5.4 39.01L5.62 39.53L5.85 40.05L6.09 40.55L6.33 41.05L6.59 41.54L7.15 42.52L7.45 43L7.75 43.47L8.07 43.94L8.39 44.4L8.74 44.86L9.08 45.31L9.45 45.75L10.19 46.61L10.59 47.03L10.99 47.44L11.58 48.02L12.19 48.57L12.8 49.1L13.43 49.62L14.07 50.11L14.73 50.58L15.4 51.02L16.08 51.45L16.77 51.85L17.46 52.22L18.17 52.59L18.9 52.92L19.63 53.23L20.37 53.53L21.1 53.79L21.86 54.03L22.62 54.25L23.38 54.45L24.16 54.63L24.94 54.78L25.71 54.91L26.5 55.02L27.29 55.1L28.08 55.15L28.87 55.19L29.68 55.2L30.47 55.18L31.28 55.14L32.07 55.08L32.88 54.99L33.68 54.88L34.48 54.74L35.27 54.58L36.08 54.39L36.87 54.18L37.66 53.94L37.67 53.93L37.68 53.93L37.7 53.92L37.72 53.92L37.73 53.91L37.76 53.91L37.77 53.9L37.82 53.9L37.83 53.89L37.88 53.89L37.89 53.88L37.99 53.88L38 53.87L38.08 53.87L38.11 53.88L38.19 53.88L38.22 53.89L38.25 53.89L38.28 53.9L38.3 53.9L38.33 53.91L38.36 53.91L38.5 53.96L38.52 53.97L38.58 53.99L38.6 54L38.62 54.01L38.65 54.02L38.68 54.04L38.7 54.05L38.73 54.07L38.75 54.09L38.78 54.1L38.8 54.12L38.82 54.14L38.86 54.18L38.89 54.2L38.93 54.23L38.96 54.25L38.98 54.27L39 54.3L39.04 54.33L39.15 54.45L39.24 54.52L39.34 54.6L39.46 54.69L39.58 54.79L39.73 54.91L39.89 55.01L40.06 55.13L40.25 55.25L40.46 55.37L40.68 55.49L40.91 55.61L41.17 55.74L41.43 55.85L41.71 55.97L42 56.07L42.31 56.18L42.64 56.27L42.97 56.36L43.33 56.44L43.69 56.5L44.07 56.56L44.47 56.6L44.88 56.63L45.3 56.65L45.74 56.64L46.19 56.62L46.65 56.57L47.13 56.51L47.62 56.44L48.13 56.33L48.64 56.2L49.17 56.04L49.08 55.98L48.99 55.9L48.9 55.82L48.71 55.67L48.62 55.59L48.53 55.51L48.44 55.42L48.36 55.35L48.26 55.26L48.17 55.16L48.09 55.08L47.91 54.89L47.83 54.8L47.75 54.69L47.67 54.6L47.59 54.5L47.36 54.19L47.22 53.98L47.16 53.86L47.09 53.76L47.02 53.64L46.91 53.41L46.85 53.29L46.8 53.17L46.66 52.8L46.62 52.67L46.58 52.54L46.55 52.41L46.54 52.33L46.48 52.04L46.47 51.94L46.46 51.84L46.44 51.63L46.44 51.51L46.43 51.41L46.43 51.29L46.44 51.17L46.46 50.94L46.47 50.82L46.51 50.57L46.54 50.43L46.56 50.31L46.59 50.17L46.63 50.04L46.73 49.77L46.77 49.63L46.83 49.49L46.89 49.35L46.97 49.21L47.03 49.06L47.11 48.92L47.2 48.77L47.29 48.62L47.39 48.48L47.49 48.32L47.6 48.18L47.71 48.03L47.84 47.87L47.85 47.86L47.85 47.86L48.14 47.56L48.16 47.55L48.25 47.46L48.26 47.44L48.28 47.42L48.3 47.41L48.36 47.36L48.36 47.34L48.47 47.23L49.27 46.38L50.02 45.49L50.72 44.59L51.38 43.66L52 42.71L52.57 41.74L53.09 40.76L53.57 39.76L54 38.75L54.38 37.71L54.72 36.68L55 35.62L55.25 34.57L55.45 33.51L55.61 32.43L55.72 31.36L55.78 30.28L55.8 29.2L55.77 28.12L55.69 27.04L55.57 25.97L55.4 24.91L55.19 23.84L54.94 22.78L54.63 21.73L54.28 20.7L53.88 19.68L53.44 18.66L52.95 17.66L52.43 16.69L51.84 15.73L51.22 14.79L50.55 13.86L49.83 12.96L49.07 12.09L48.26 11.24L47.41 10.41L46.53 9.64L45.62 8.91L44.68 8.22L43.72 7.59L42.73 6.99L41.74 6.45L40.71 5.95L39.68 5.49L38.62 5.09L37.56 4.72L36.49 4.42L35.4 4.15L34.3 3.93L33.19 3.76L32.09 3.63L30.98 3.55L29.86 3.52L28.75 3.53L27.64 3.59Z" id="a3hyl24PI9"></path><path d="M32.08 1.06L33.18 1.18L34.27 1.33L35.36 1.53L36.44 1.77L37.5 2.05L38.57 2.37L39.62 2.73L40.65 3.13L41.68 3.58L42.69 4.06L43.68 4.59L44.66 5.16L45.62 5.77L46.55 6.42L47.47 7.12L48.36 7.85L49.24 8.62L50.08 9.45L50.52 9.9L50.95 10.36L51.36 10.83L51.77 11.3L52.17 11.78L52.91 12.76L53.27 13.26L53.61 13.77L53.95 14.27L54.27 14.79L54.57 15.31L54.87 15.83L55.16 16.36L55.42 16.9L55.68 17.43L55.93 17.98L56.16 18.52L56.39 19.07L56.6 19.63L56.99 20.74L57.16 21.3L57.32 21.86L57.47 22.43L57.61 23L57.73 23.57L57.85 24.15L57.95 24.72L58.04 25.3L58.12 25.87L58.18 26.46L58.24 27.03L58.28 27.62L58.31 28.19L58.33 28.78L58.34 29.36L58.33 29.94L58.31 30.52L58.28 31.1L58.47 31.06L58.67 31.02L58.87 30.98L59.06 30.94L59.47 30.86L59.66 30.82L59.86 30.79L60.06 30.76L60.26 30.72L60.46 30.69L60.65 30.65L61.66 30.51L61.86 30.49L62.06 30.46L62.46 30.42L62.67 30.39L63.07 30.36L63.27 30.35L63.67 30.31L63.87 30.3L64.08 30.28L65.09 30.23L65.3 30.23L65.5 30.22L65.7 30.22L65.9 30.21L66.31 30.21L67.83 30.24L69.33 30.34L70.81 30.48L72.27 30.69L73.72 30.96L75.15 31.27L76.55 31.65L77.93 32.07L79.29 32.55L80.63 33.09L81.94 33.66L83.22 34.29L84.47 34.96L85.69 35.68L86.88 36.45L88.04 37.25L89.17 38.1L90.26 39L91.31 39.93L92.33 40.9L93.32 41.91L94.26 42.95L95.16 44.03L96.02 45.15L96.83 46.3L97.61 47.48L98.33 48.69L99.02 49.92L99.65 51.2L100.23 52.49L100.76 53.81L101.25 55.15L101.68 56.52L102.05 57.91L102.38 59.33L102.65 60.76L102.86 62.21L103 63.68L103.1 65.16L103.12 66.67L103.1 68.17L103 69.66L102.86 71.12L102.65 72.57L102.38 74L102.05 75.41L101.68 76.81L101.25 78.17L100.76 79.52L100.23 80.84L99.65 82.14L99.02 83.4L98.33 84.65L97.61 85.85L96.83 87.03L96.02 88.18L95.16 89.29L94.26 90.37L93.32 91.42L92.33 92.43L91.31 93.4L90.26 94.33L89.17 95.23L88.04 96.07L86.88 96.89L85.69 97.65L84.47 98.37L83.22 99.04L81.94 99.67L80.63 100.25L79.29 100.78L77.93 101.26L76.55 101.69L75.15 102.06L73.72 102.38L72.27 102.64L70.81 102.85L69.33 103L67.83 103.08L66.31 103.12L65.18 103.1L64.62 103.08L64.05 103.06L63.49 103.02L62.93 102.97L62.37 102.91L61.81 102.85L61.26 102.78L60.71 102.7L60.16 102.62L59.61 102.52L58.52 102.31L57.97 102.18L57.44 102.06L56.9 101.93L56.36 101.78L55.83 101.63L55.3 101.47L54.25 101.12L53.72 100.94L53.2 100.75L52.68 100.55L52.18 100.34L51.66 100.12L51.15 99.9L50.65 99.67L50.15 99.44L49.65 99.19L49.16 98.93L48.66 98.67L48.17 98.4L47.69 98.12L46.74 97.55L45.8 96.94L45.33 96.62L45.1 96.77L44.83 96.93L44.54 97.1L44.23 97.28L43.88 97.46L43.52 97.66L43.13 97.85L42.72 98.06L42.29 98.26L41.84 98.46L41.37 98.66L40.88 98.86L40.38 99.04L39.86 99.22L39.32 99.4L38.78 99.56L38.21 99.71L37.64 99.85L37.05 99.97L36.46 100.07L35.85 100.15L35.23 100.21L34.62 100.25L33.99 100.27L33.36 100.26L32.72 100.22L32.08 100.15L31.44 100.05L30.8 99.92L30.16 99.75L29.51 99.55L28.87 99.31L28.24 99.03L27.61 98.72L26.98 98.35L26.35 97.94L25.74 97.49L25.13 96.98L24.53 96.44L23.94 95.83L23.92 95.81L23.9 95.79L23.88 95.76L23.86 95.74L23.84 95.71L23.82 95.69L23.79 95.63L23.78 95.6L23.76 95.58L23.75 95.56L23.73 95.53L23.72 95.5L23.7 95.47L23.63 95.27L23.63 95.24L23.62 95.2L23.61 95.17L23.61 95.14L23.6 95.12L23.6 94.99L23.59 94.96L23.6 94.93L23.6 94.84L23.61 94.81L23.61 94.74L23.63 94.68L23.64 94.65L23.64 94.62L23.67 94.53L23.69 94.5L23.72 94.42L23.74 94.39L23.75 94.36L23.77 94.33L23.78 94.3L23.8 94.28L23.83 94.22L23.85 94.21L23.87 94.18L23.89 94.16L23.91 94.13L23.93 94.11L23.95 94.08L23.99 94.04L24.02 94.02L24.08 93.96L24.11 93.94L24.13 93.93L24.19 93.89L24.21 93.87L24.24 93.86L24.29 93.82L24.35 93.8L24.38 93.78L24.44 93.76L24.5 93.74L24.6 93.7L24.74 93.63L24.91 93.56L25.1 93.48L25.33 93.37L25.58 93.26L26.13 92.98L26.45 92.83L26.77 92.65L27.11 92.47L27.46 92.27L27.83 92.06L28.19 91.84L28.57 91.61L28.95 91.37L29.32 91.11L29.7 90.84L30.07 90.57L30.44 90.28L30.8 89.98L31.15 89.67L31.49 89.36L31.81 89.02L32.12 88.69L32.41 88.34L32.68 87.99L32.92 87.63L33.14 87.26L33.33 86.88L33.49 86.49L33.62 86.1L33.72 85.7L33.78 85.3L33.8 84.89L33.79 84.46L33.72 84.04L33.61 83.61L33.47 83.31L33.32 83L33.17 82.68L33.04 82.37L32.75 81.72L32.48 81.06L32.36 80.73L32.23 80.4L32.1 80.06L31.85 79.39L31.73 79.04L31.61 78.71L31.38 78.02L30.96 76.64L30.77 75.95L30.68 75.6L30.59 75.27L30.51 74.92L30.42 74.59L30.19 73.58L30.13 73.25L30.07 72.92L30 72.6L29.95 72.27L29.8 71.32L29.69 70.4L29.69 70.37L29.68 70.33L29.67 70.25L29.66 70.16L29.65 70.05L29.63 69.91L29.62 69.76L29.6 69.59L29.58 69.41L29.56 69.2L29.55 68.98L29.53 68.74L29.51 68.48L29.5 68.21L29.49 67.93L29.47 67.63L29.46 67.32L29.45 66.99L29.44 66.66L29.43 66.3L29.43 64.81L29.45 64.41L29.46 64L29.5 63.16L29.52 62.73L29.56 62.3L29.64 61.42L29.7 60.97L29.81 60.05L29.96 59.13L30.05 58.67L30.15 58.2L30.24 57.74L29.66 57.75L29.07 57.74L28.5 57.73L27.91 57.7L27.33 57.66L26.18 57.55L25.61 57.47L25.03 57.39L24.47 57.29L23.89 57.18L23.33 57.06L22.76 56.93L22.21 56.79L21.65 56.64L20.54 56.29L19.99 56.1L19.46 55.91L18.91 55.7L18.37 55.48L17.85 55.25L16.79 54.75L15.76 54.22L15.25 53.93L14.75 53.63L14.26 53.32L13.28 52.67L12.8 52.34L12.32 51.98L11.85 51.63L11.39 51.26L10.93 50.87L10.48 50.48L10.04 50.08L9.61 49.67L9.18 49.24L8.78 48.83L8.39 48.42L8.01 48L7.64 47.57L7.28 47.14L6.93 46.7L6.58 46.25L6.26 45.8L5.93 45.34L5.62 44.88L5.02 43.94L4.73 43.46L4.47 42.98L4.2 42.49L3.7 41.5L3.47 41L3.24 40.49L3.03 39.98L2.63 38.95L2.45 38.43L2.27 37.9L2.11 37.38L1.96 36.84L1.69 35.77L1.56 35.22L1.46 34.68L1.27 33.58L1.19 33.03L1.12 32.47L1.08 31.91L1.03 31.35L0.99 30.79L0.97 30.22L0.96 29.66L0.96 29.09L0.97 28.53L0.99 27.95L1.02 27.4L1.07 26.83L1.12 26.27L1.19 25.71L1.27 25.15L1.35 24.61L1.45 24.05L1.55 23.51L1.68 22.97L1.8 22.42L1.95 21.89L2.1 21.35L2.26 20.82L2.44 20.3L2.62 19.78L2.81 19.26L3.01 18.75L3.22 18.23L3.45 17.73L3.68 17.22L3.92 16.73L4.44 15.75L4.72 15.26L4.99 14.79L5.29 14.31L5.59 13.84L5.9 13.38L6.23 12.92L6.55 12.47L7.24 11.59L7.97 10.73L8.36 10.31L8.74 9.9L9.13 9.48L9.54 9.08L10.4 8.28L11.29 7.52L12.19 6.8L13.12 6.12L14.06 5.49L15.03 4.9L16.02 4.35L17.02 3.84L18.04 3.37L19.07 2.94L20.12 2.56L21.18 2.21L22.24 1.92L23.32 1.65L24.4 1.44L25.49 1.26L26.58 1.12L27.68 1.03L28.79 0.98L29.89 0.97L30.99 1L32.08 1.06ZM65.46 32.78L65.25 32.78L64.2 32.83L63.99 32.85L63.78 32.86L63.57 32.87L63.36 32.89L62.73 32.95L62.52 32.98L62.31 33L62.1 33.03L61.9 33.05L61.27 33.13L61.07 33.17L60.64 33.23L60.44 33.27L60.23 33.31L60.03 33.34L59.61 33.42L59.41 33.46L59.21 33.51L59 33.55L58.8 33.59L58.59 33.64L57.98 33.78L57.75 35.02L57.66 35.43L57.57 35.84L57.36 36.67L57.13 37.47L56.99 37.88L56.87 38.29L56.73 38.69L56.58 39.08L56.43 39.48L56.28 39.88L56.11 40.28L55.94 40.67L55.77 41.05L55.59 41.45L55.2 42.21L55 42.6L54.79 42.98L54.58 43.35L54.36 43.73L53.9 44.47L53.42 45.2L52.9 45.93L52.65 46.28L52.38 46.64L52.1 46.98L51.53 47.67L51.23 48.02L50.92 48.35L50.62 48.68L50.3 49.01L50.26 49.05L50.25 49.07L50.23 49.08L50.21 49.11L50.18 49.14L50.17 49.15L50.13 49.19L50.09 49.23L50.08 49.24L50.03 49.28L50.01 49.31L49.96 49.35L49.95 49.37L49.95 49.38L49.93 49.39L49.92 49.41L49.82 49.5L49.79 49.52L49.76 49.55L49.72 49.62L49.62 49.73L49.58 49.79L49.53 49.86L49.38 50.09L49.35 50.14L49.31 50.21L49.2 50.44L49.18 50.5L49.15 50.56L49.13 50.61L49.11 50.66L49.05 50.83L49.04 50.95L49.02 51.01L49.01 51.05L49.01 51.11L48.99 51.23L48.99 51.5L49 51.55L49 51.6L49.01 51.66L49.02 51.71L49.04 51.82L49.07 51.94L49.11 52.06L49.15 52.18L49.32 52.52L49.39 52.63L49.54 52.85L49.63 52.96L49.8 53.17L49.9 53.27L49.99 53.37L50.09 53.47L50.41 53.76L50.62 53.93L50.73 54.01L50.84 54.1L50.95 54.18L51.06 54.26L51.17 54.33L51.28 54.41L51.38 54.47L51.5 54.55L51.59 54.61L51.7 54.68L51.8 54.73L51.9 54.79L52 54.84L52.09 54.9L52.18 54.93L52.26 54.98L52.55 55.13L52.59 55.13L52.62 55.15L52.66 55.17L52.68 55.19L52.72 55.21L52.81 55.27L52.84 55.3L52.9 55.34L52.92 55.36L52.94 55.39L52.97 55.41L52.99 55.44L53.02 55.47L53.04 55.5L53.07 55.53L53.14 55.64L53.16 55.68L53.17 55.71L53.19 55.74L53.21 55.78L53.22 55.81L53.24 55.84L53.25 55.87L53.27 55.95L53.28 55.98L53.3 56.05L53.3 56.09L53.31 56.12L53.31 56.16L53.32 56.2L53.32 56.38L53.31 56.42L53.31 56.46L53.3 56.5L53.3 56.53L53.29 56.56L53.27 56.64L53.26 56.67L53.24 56.74L53.22 56.77L53.21 56.81L53.19 56.84L53.18 56.87L53.16 56.91L53.09 57.02L53.07 57.06L53.04 57.08L53 57.14L52.9 57.24L52.87 57.26L52.84 57.29L52.78 57.33L52.75 57.36L52.72 57.38L52.68 57.4L52.66 57.41L52.63 57.42L52.59 57.44L52.39 57.54L52.18 57.63L51.77 57.81L51.58 57.89L51.38 57.97L51.18 58.06L50.99 58.12L50.8 58.2L50.6 58.27L50.21 58.4L50.03 58.46L49.65 58.57L49.47 58.63L48.92 58.77L48.56 58.85L48.38 58.89L48.2 58.93L48.03 58.97L47.51 59.05L47.34 59.07L47.17 59.1L47 59.12L46.83 59.14L46.67 59.15L46.51 59.17L46.02 59.2L45.86 59.21L45.71 59.21L45.55 59.22L45.4 59.22L44.53 59.19L44.26 59.17L43.99 59.14L43.72 59.1L43.46 59.07L43.2 59.02L42.7 58.93L42.46 58.88L42.23 58.81L42 58.76L41.77 58.69L41.32 58.55L41.11 58.48L40.71 58.32L40.51 58.24L40.32 58.16L39.95 57.99L39.78 57.9L39.62 57.82L39.45 57.73L38.99 57.47L38.85 57.38L38.71 57.29L38.59 57.2L38.45 57.13L38.22 56.95L37.91 56.72L37.82 56.66L37.73 56.58L37.61 56.62L37.49 56.65L37.37 56.69L37.25 56.72L37.13 56.75L37.01 56.78L36.89 56.81L36.77 56.84L36.65 56.87L36.54 56.9L36.41 56.93L36.3 56.95L36.17 56.98L36.06 57.01L35.93 57.04L35.82 57.07L35.69 57.09L35.58 57.12L35.45 57.15L35.34 57.17L35.21 57.18L35.09 57.21L34.97 57.23L34.85 57.26L34.73 57.28L34.61 57.3L34.5 57.32L34.25 57.36L34.13 57.38L34.01 57.4L33.89 57.41L33.77 57.43L33.65 57.45L33.53 57.46L33.4 57.48L33.29 57.5L33.16 57.51L33.05 57.53L32.92 57.54L32.81 57.99L32.62 58.89L32.45 59.79L32.31 60.69L32.25 61.13L32.16 62.01L32.12 62.44L32.09 62.87L32.06 63.3L32.03 63.71L32.01 64.12L32 64.52L32 64.91L31.99 65.3L31.99 66.04L32 66.39L32.01 67.06L32.02 67.38L32.03 67.67L32.05 67.96L32.06 68.23L32.08 68.49L32.1 68.73L32.11 68.95L32.13 69.16L32.15 69.34L32.16 69.51L32.18 69.67L32.19 69.79L32.21 69.9L32.22 69.98L32.22 70.05L32.23 70.09L32.23 70.11L32.25 70.39L32.33 70.97L32.38 71.27L32.43 71.57L32.47 71.87L32.52 72.17L32.58 72.48L32.85 73.75L33 74.38L33.08 74.7L33.25 75.36L33.35 75.67L33.43 76L33.53 76.32L33.63 76.65L33.73 76.97L33.94 77.63L34.05 77.95L34.16 78.27L34.27 78.59L34.39 78.91L34.51 79.23L34.63 79.55L34.75 79.87L34.88 80.17L35.01 80.49L35.14 80.8L35.27 81.1L35.81 82.29L35.95 82.58L35.96 82.59L35.96 82.6L35.97 82.62L35.97 82.63L35.98 82.63L35.98 82.64L36 82.68L36.01 82.71L36.01 82.72L36.02 82.73L36.02 82.75L36.15 83.22L36.26 83.69L36.32 84.14L36.36 84.59L36.36 85.04L36.34 85.47L36.3 85.9L36.22 86.32L36.11 86.73L35.99 87.14L35.84 87.54L35.66 87.92L35.47 88.31L35.26 88.68L35.04 89.05L34.79 89.41L34.53 89.76L34.26 90.1L33.97 90.43L33.67 90.76L33.36 91.07L33.05 91.38L32.72 91.68L32.05 92.25L31.36 92.79L31.01 93.04L30.66 93.29L29.97 93.75L29.28 94.17L28.63 94.55L28.31 94.73L28 94.9L27.7 95.05L27.42 95.2L27.15 95.34L27.71 95.76L28.28 96.14L28.86 96.47L29.45 96.75L30.03 97L30.63 97.2L31.22 97.38L31.81 97.51L32.41 97.61L33 97.66L33.59 97.7L34.18 97.71L34.76 97.69L35.34 97.64L35.91 97.58L36.48 97.49L37.03 97.38L37.57 97.25L38.11 97.12L38.62 96.96L39.13 96.8L39.62 96.63L40.1 96.45L40.55 96.26L40.99 96.06L41.41 95.87L41.8 95.68L42.19 95.49L42.54 95.31L42.87 95.12L43.17 94.95L43.45 94.79L43.7 94.64L43.92 94.49L44.11 94.37L44.27 94.26L44.41 94.18L44.5 94.11L44.56 94.06L44.59 94.05L44.62 94.02L44.66 94L44.7 93.98L44.73 93.96L44.84 93.9L44.88 93.89L44.92 93.87L45.18 93.8L45.26 93.8L45.31 93.79L45.39 93.79L45.42 93.8L45.5 93.8L45.58 93.82L45.63 93.82L45.7 93.84L45.74 93.86L45.82 93.88L45.86 93.9L45.88 93.92L45.92 93.93L45.96 93.95L46 93.98L46.03 93.99L46.07 94.01L46.1 94.04L46.54 94.36L47 94.67L47.45 94.96L47.91 95.26L48.36 95.55L48.82 95.82L49.76 96.36L50.23 96.61L50.71 96.86L51.2 97.1L51.68 97.33L52.17 97.56L52.66 97.77L53.15 97.98L53.65 98.18L54.15 98.37L54.66 98.55L55.16 98.74L55.67 98.9L56.18 99.06L56.7 99.21L57.21 99.36L57.73 99.49L58.25 99.63L59.3 99.86L59.83 99.96L60.36 100.06L60.89 100.14L61.97 100.3L63.04 100.41L63.58 100.46L64.12 100.5L64.67 100.53L65.21 100.55L65.77 100.56L66.31 100.57L67.72 100.54L69.12 100.45L70.5 100.32L71.86 100.12L73.21 99.88L74.53 99.58L75.85 99.23L77.13 98.83L78.39 98.39L79.64 97.89L80.85 97.36L82.04 96.77L83.21 96.15L84.34 95.48L85.45 94.77L86.53 94.01L87.58 93.23L88.59 92.4L89.58 91.52L90.53 90.62L91.44 89.68L92.31 88.72L93.15 87.71L93.96 86.68L94.71 85.6L95.43 84.51L96.11 83.38L96.75 82.23L97.33 81.05L97.88 79.85L98.37 78.62L98.82 77.37L99.23 76.09L99.57 74.8L99.88 73.49L100.13 72.16L100.32 70.81L100.46 69.45L100.55 68.07L100.58 66.67L100.55 65.27L100.46 63.89L100.32 62.52L100.13 61.18L99.88 59.85L99.57 58.53L99.23 57.23L98.82 55.96L98.37 54.71L97.88 53.49L97.33 52.28L96.75 51.1L96.11 49.94L95.43 48.82L94.71 47.72L93.96 46.66L93.15 45.62L92.31 44.62L91.44 43.64L90.53 42.7L89.58 41.8L88.59 40.94L87.58 40.11L86.53 39.31L85.45 38.56L84.34 37.86L83.21 37.18L82.04 36.55L80.85 35.97L79.64 35.43L78.39 34.94L77.13 34.49L75.85 34.1L74.53 33.76L73.21 33.46L71.86 33.21L70.5 33.02L69.12 32.88L67.72 32.8L66.31 32.77L65.68 32.77L65.46 32.78ZM27.64 3.59L26.53 3.7L25.41 3.85L24.31 4.05L23.22 4.3L22.14 4.59L21.07 4.93L20.01 5.32L18.97 5.75L17.93 6.24L16.93 6.76L15.93 7.34L14.96 7.96L14.02 8.62L13.09 9.34L12.2 10.11L11.32 10.91L10.91 11.32L10.51 11.73L10.13 12.16L9.74 12.59L9.38 13.02L9.02 13.46L8.67 13.91L8.34 14.37L8.01 14.83L7.69 15.3L7.4 15.77L7.1 16.25L6.81 16.73L6.55 17.22L6.29 17.72L6.04 18.22L5.8 18.73L5.58 19.23L5.36 19.75L5.16 20.28L4.96 20.8L4.78 21.33L4.46 22.41L4.31 22.94L4.18 23.49L4.05 24.03L3.95 24.59L3.85 25.14L3.77 25.7L3.69 26.27L3.63 26.83L3.59 27.4L3.55 27.97L3.52 28.54L3.51 29.11L3.51 29.68L3.53 30.26L3.56 30.82L3.6 31.4L3.64 31.96L3.7 32.52L3.78 33.09L3.86 33.64L3.97 34.2L4.07 34.74L4.2 35.29L4.49 36.38L4.64 36.92L4.81 37.44L4.99 37.97L5.19 38.5L5.4 39.01L5.62 39.53L5.85 40.05L6.09 40.55L6.33 41.05L6.59 41.54L7.15 42.52L7.45 43L7.75 43.47L8.07 43.94L8.39 44.4L8.74 44.86L9.08 45.31L9.45 45.75L10.19 46.61L10.59 47.03L10.99 47.44L11.58 48.02L12.19 48.57L12.8 49.1L13.43 49.62L14.07 50.11L14.73 50.58L15.4 51.02L16.08 51.45L16.77 51.85L17.46 52.22L18.17 52.59L18.9 52.92L19.63 53.23L20.37 53.53L21.1 53.79L21.86 54.03L22.62 54.25L23.38 54.45L24.16 54.63L24.94 54.78L25.71 54.91L26.5 55.02L27.29 55.1L28.08 55.15L28.87 55.19L29.68 55.2L30.47 55.18L31.28 55.14L32.07 55.08L32.88 54.99L33.68 54.88L34.48 54.74L35.27 54.58L36.08 54.39L36.87 54.18L37.66 53.94L37.67 53.93L37.68 53.93L37.7 53.92L37.72 53.92L37.73 53.91L37.76 53.91L37.77 53.9L37.82 53.9L37.83 53.89L37.88 53.89L37.89 53.88L37.99 53.88L38 53.87L38.08 53.87L38.11 53.88L38.19 53.88L38.22 53.89L38.25 53.89L38.28 53.9L38.3 53.9L38.33 53.91L38.36 53.91L38.5 53.96L38.52 53.97L38.58 53.99L38.6 54L38.62 54.01L38.65 54.02L38.68 54.04L38.7 54.05L38.73 54.07L38.75 54.09L38.78 54.1L38.8 54.12L38.82 54.14L38.86 54.18L38.89 54.2L38.93 54.23L38.96 54.25L38.98 54.27L39 54.3L39.04 54.33L39.15 54.45L39.24 54.52L39.34 54.6L39.46 54.69L39.58 54.79L39.73 54.91L39.89 55.01L40.06 55.13L40.25 55.25L40.46 55.37L40.68 55.49L40.91 55.61L41.17 55.74L41.43 55.85L41.71 55.97L42 56.07L42.31 56.18L42.64 56.27L42.97 56.36L43.33 56.44L43.69 56.5L44.07 56.56L44.47 56.6L44.88 56.63L45.3 56.65L45.74 56.64L46.19 56.62L46.65 56.57L47.13 56.51L47.62 56.44L48.13 56.33L48.64 56.2L49.17 56.04L49.08 55.98L48.99 55.9L48.9 55.82L48.71 55.67L48.62 55.59L48.53 55.51L48.44 55.42L48.36 55.35L48.26 55.26L48.17 55.16L48.09 55.08L47.91 54.89L47.83 54.8L47.75 54.69L47.67 54.6L47.59 54.5L47.36 54.19L47.22 53.98L47.16 53.86L47.09 53.76L47.02 53.64L46.91 53.41L46.85 53.29L46.8 53.17L46.66 52.8L46.62 52.67L46.58 52.54L46.55 52.41L46.54 52.33L46.48 52.04L46.47 51.94L46.46 51.84L46.44 51.63L46.44 51.51L46.43 51.41L46.43 51.29L46.44 51.17L46.46 50.94L46.47 50.82L46.51 50.57L46.54 50.43L46.56 50.31L46.59 50.17L46.63 50.04L46.73 49.77L46.77 49.63L46.83 49.49L46.89 49.35L46.97 49.21L47.03 49.06L47.11 48.92L47.2 48.77L47.29 48.62L47.39 48.48L47.49 48.32L47.6 48.18L47.71 48.03L47.84 47.87L47.85 47.86L47.85 47.86L48.14 47.56L48.16 47.55L48.25 47.46L48.26 47.44L48.28 47.42L48.3 47.41L48.36 47.36L48.36 47.34L48.47 47.23L49.27 46.38L50.02 45.49L50.72 44.59L51.38 43.66L52 42.71L52.57 41.74L53.09 40.76L53.57 39.76L54 38.75L54.38 37.71L54.72 36.68L55 35.62L55.25 34.57L55.45 33.51L55.61 32.43L55.72 31.36L55.78 30.28L55.8 29.2L55.77 28.12L55.69 27.04L55.57 25.97L55.4 24.91L55.19 23.84L54.94 22.78L54.63 21.73L54.28 20.7L53.88 19.68L53.44 18.66L52.95 17.66L52.43 16.69L51.84 15.73L51.22 14.79L50.55 13.86L49.83 12.96L49.07 12.09L48.26 11.24L47.41 10.41L46.53 9.64L45.62 8.91L44.68 8.22L43.72 7.59L42.73 6.99L41.74 6.45L40.71 5.95L39.68 5.49L38.62 5.09L37.56 4.72L36.49 4.42L35.4 4.15L34.3 3.93L33.19 3.76L32.09 3.63L30.98 3.55L29.86 3.52L28.75 3.53L27.64 3.59Z" id="bNocLm8rB"></path><path d="M56.83 74.71C56.83 75.41 57.41 75.99 58.11 75.99C60.4 75.99 78.8 75.99 81.09 75.99C81.8 75.99 82.38 75.41 82.38 74.71C82.38 74 81.8 73.43 81.09 73.43C76.5 73.43 60.4 73.43 58.11 73.43C57.41 73.43 56.83 74 56.83 74.71Z" id="c6uGPpxpe4"></path><path d="M56.83 74.71C56.83 75.41 57.41 75.99 58.11 75.99C60.4 75.99 78.8 75.99 81.09 75.99C81.8 75.99 82.38 75.41 82.38 74.71C82.38 74 81.8 73.43 81.09 73.43C76.5 73.43 60.4 73.43 58.11 73.43C57.41 73.43 56.83 74 56.83 74.71Z" id="oDFXsTQdq"></path><path d="M57.14 64.27C57.14 64.98 57.71 65.55 58.41 65.55C60.71 65.55 79.1 65.55 81.4 65.55C82.11 65.55 82.68 64.98 82.68 64.27C82.68 63.56 82.11 63 81.4 63C76.8 63 60.71 63 58.41 63C57.71 63 57.14 63.56 57.14 64.27Z" id="eeW4pNShz"></path><path d="M57.14 64.27C57.14 64.98 57.71 65.55 58.41 65.55C60.71 65.55 79.1 65.55 81.4 65.55C82.11 65.55 82.68 64.98 82.68 64.27C82.68 63.56 82.11 63 81.4 63C76.8 63 60.71 63 58.41 63C57.71 63 57.14 63.56 57.14 64.27Z" id="co5sNYy2b"></path><path d="M13.73 41.93C13.73 42.64 14.48 43.21 15.41 43.21C18.42 43.21 42.56 43.21 45.58 43.21C46.51 43.21 47.25 42.64 47.25 41.93C47.25 41.23 46.51 40.65 45.58 40.65C39.54 40.65 18.42 40.65 15.41 40.65C14.48 40.65 13.73 41.23 13.73 41.93Z" id="a1dg452YTg"></path><path d="M13.73 41.93C13.73 42.64 14.48 43.21 15.41 43.21C18.42 43.21 42.56 43.21 45.58 43.21C46.51 43.21 47.25 42.64 47.25 41.93C47.25 41.23 46.51 40.65 45.58 40.65C39.54 40.65 18.42 40.65 15.41 40.65C14.48 40.65 13.73 41.23 13.73 41.93Z" id="g4cdnvseiN"></path><path d="M13.73 24.58C13.73 25.29 14.48 25.86 15.41 25.86C18.42 25.86 42.56 25.86 45.58 25.86C46.51 25.86 47.25 25.29 47.25 24.58C47.25 23.88 46.51 23.31 45.58 23.31C39.54 23.31 18.42 23.31 15.41 23.31C14.48 23.31 13.73 23.88 13.73 24.58Z" id="c3w2Qkaz3t"></path><path d="M13.73 24.58C13.73 25.29 14.48 25.86 15.41 25.86C18.42 25.86 42.56 25.86 45.58 25.86C46.51 25.86 47.25 25.29 47.25 24.58C47.25 23.88 46.51 23.31 45.58 23.31C39.54 23.31 18.42 23.31 15.41 23.31C14.48 23.31 13.73 23.88 13.73 24.58Z" id="b1vU7uwnjm"></path><path d="M31.39 10.74C31.84 11.28 31.82 12.04 31.34 12.44C29.78 13.74 17.3 24.15 15.75 25.45C15.27 25.85 14.51 25.74 14.06 25.19C13.61 24.66 13.63 23.89 14.11 23.5C17.23 20.89 28.14 11.78 29.71 10.48C30.18 10.08 30.94 10.19 31.39 10.74Z" id="f3gRjHA1iW"></path><path d="M31.39 10.74C31.84 11.28 31.82 12.04 31.34 12.44C29.78 13.74 17.3 24.15 15.75 25.45C15.27 25.85 14.51 25.74 14.06 25.19C13.61 24.66 13.63 23.89 14.11 23.5C17.23 20.89 28.14 11.78 29.71 10.48C30.18 10.08 30.94 10.19 31.39 10.74Z" id="euN0kjCLp"></path><path d="M29.59 10.74C29.14 11.28 29.16 12.04 29.64 12.44C31.2 13.74 43.67 24.15 45.23 25.45C45.71 25.85 46.47 25.74 46.92 25.19C47.37 24.65 47.35 23.89 46.87 23.49C43.75 20.88 32.84 11.78 31.28 10.48C30.8 10.08 30.04 10.19 29.59 10.74Z" id="d1BlBgkf6l"></path><path d="M29.59 10.74C29.14 11.28 29.16 12.04 29.64 12.44C31.2 13.74 43.67 24.15 45.23 25.45C45.71 25.85 46.47 25.74 46.92 25.19C47.37 24.65 47.35 23.89 46.87 23.49C43.75 20.88 32.84 11.78 31.28 10.48C30.8 10.08 30.04 10.19 29.59 10.74Z" id="b3Qc2DBKP6"></path><path d="M17.5 24.38L43.12 24.38L43.12 41.53L17.5 41.53L17.5 24.38Z" id="abCwexiWr"></path><path d="M25.63 24.38L35.63 24.38L35.63 41.88L25.63 41.88L25.63 24.38Z" id="c1YUYR2hXK"></path></defs><g><g><use xlink:href="#a3hyl24PI9" opacity="1" fill="#50bbe6" fill-opacity="1"></use><g><use xlink:href="#a3hyl24PI9" opacity="1" fill-opacity="0" stroke="#000000" stroke-width="1" stroke-opacity="0"></use></g></g><g><use xlink:href="#bNocLm8rB" opacity="1" fill="#000000" fill-opacity="0"></use><g><use xlink:href="#bNocLm8rB" opacity="1" fill-opacity="0" stroke="#000000" stroke-width="1" stroke-opacity="0"></use></g></g><g><use xlink:href="#c6uGPpxpe4" opacity="1" fill="#50bbe6" fill-opacity="1"></use><g><use xlink:href="#c6uGPpxpe4" opacity="1" fill-opacity="0" stroke="#000000" stroke-width="1" stroke-opacity="0"></use></g></g><g><use xlink:href="#oDFXsTQdq" opacity="1" fill="#000000" fill-opacity="0"></use><g><use xlink:href="#oDFXsTQdq" opacity="1" fill-opacity="0" stroke="#000000" stroke-width="1" stroke-opacity="0"></use></g></g><g><use xlink:href="#eeW4pNShz" opacity="1" fill="#50bbe6" fill-opacity="1"></use><g><use xlink:href="#eeW4pNShz" opacity="1" fill-opacity="0" stroke="#000000" stroke-width="1" stroke-opacity="0"></use></g></g><g><use xlink:href="#co5sNYy2b" opacity="1" fill="#000000" fill-opacity="0"></use><g><use xlink:href="#co5sNYy2b" opacity="1" fill-opacity="0" stroke="#000000" stroke-width="1" stroke-opacity="0"></use></g></g><g><use xlink:href="#a1dg452YTg" opacity="1" fill="#50bbe6" fill-opacity="1"></use><g><use xlink:href="#a1dg452YTg" opacity="1" fill-opacity="0" stroke="#000000" stroke-width="1" stroke-opacity="0"></use></g></g><g><use xlink:href="#g4cdnvseiN" opacity="1" fill="#000000" fill-opacity="0"></use><g><use xlink:href="#g4cdnvseiN" opacity="1" fill-opacity="0" stroke="#000000" stroke-width="1" stroke-opacity="0"></use></g></g><g><use xlink:href="#c3w2Qkaz3t" opacity="1" fill="#50bbe6" fill-opacity="1"></use><g><use xlink:href="#c3w2Qkaz3t" opacity="1" fill-opacity="0" stroke="#000000" stroke-width="1" stroke-opacity="0"></use></g></g><g><use xlink:href="#b1vU7uwnjm" opacity="1" fill="#000000" fill-opacity="0"></use><g><use xlink:href="#b1vU7uwnjm" opacity="1" fill-opacity="0" stroke="#000000" stroke-width="1" stroke-opacity="0"></use></g></g><g><use xlink:href="#f3gRjHA1iW" opacity="1" fill="#50bbe6" fill-opacity="1"></use><g><use xlink:href="#f3gRjHA1iW" opacity="1" fill-opacity="0" stroke="#000000" stroke-width="1" stroke-opacity="0"></use></g></g><g><use xlink:href="#euN0kjCLp" opacity="1" fill="#000000" fill-opacity="0"></use><g><use xlink:href="#euN0kjCLp" opacity="1" fill-opacity="0" stroke="#000000" stroke-width="1" stroke-opacity="0"></use></g></g><g><use xlink:href="#d1BlBgkf6l" opacity="1" fill="#50bbe6" fill-opacity="1"></use><g><use xlink:href="#d1BlBgkf6l" opacity="1" fill-opacity="0" stroke="#000000" stroke-width="1" stroke-opacity="0"></use></g></g><g><use xlink:href="#b3Qc2DBKP6" opacity="1" fill="#000000" fill-opacity="0"></use><g><use xlink:href="#b3Qc2DBKP6" opacity="1" fill-opacity="0" stroke="#000000" stroke-width="1" stroke-opacity="0"></use></g></g><g><g><use xlink:href="#abCwexiWr" opacity="1" fill-opacity="0" stroke="#50bbe6" stroke-width="2" stroke-opacity="1"></use></g></g><g><g><use xlink:href="#c1YUYR2hXK" opacity="1" fill-opacity="0" stroke="#50bbe6" stroke-width="2" stroke-opacity="1"></use></g></g></g></svg>